<svg id="Layer_1" data-name="Layer 1" xmlns="http://www.w3.org/2000/svg" viewBox="0 0 116.7 116.37"><defs><style>.cls-1,.cls-2{stroke:#000;stroke-width:3px;}.cls-1,.cls-2,.cls-3{stroke-miterlimit:10;}.cls-2{fill:#fff;}.cls-3{stroke:#fff;stroke-width:0.25px;}</style></defs><path class="cls-1" d="M31.12,21.54A28.88,28.88,0,0,1,60,50.41c0,6.18-3.8,16.22-9.43,26.05-5.3,9.26-12.22,18.36-19.13,23.91a.51.51,0,0,1-.63,0C23.9,94.82,17,85.72,11.68,76.46c-5.63-9.83-9.43-19.87-9.43-26A28.87,28.87,0,0,1,31.12,21.54Z"/><path class="cls-2" d="M31.12,40.3a13.13,13.13,0,1,1-9.27,3.84,13.07,13.07,0,0,1,9.27-3.84Z"/><path class="cls-1" d="M98.05,16a16.41,16.41,0,0,1,16.42,16.41c0,3.5-2.15,9.17-5.32,14.72-3,5.21-6.88,10.33-10.78,13.46a.48.48,0,0,1-.63,0c-3.9-3.13-7.8-8.25-10.78-13.46-3.17-5.55-5.32-11.22-5.32-14.72A16.41,16.41,0,0,1,98.05,16Z"/><path class="cls-2" d="M98.05,26.5a7.56,7.56,0,1,1-5.35,2.21,7.54,7.54,0,0,1,5.35-2.21Z"/><path class="cls-3" d="M37.42,101.17a.51.51,0,0,1,0-1h1a.51.51,0,0,1,.05,1h-1Zm6.14-.77a.5.5,0,0,1-.24-1l.08,0,.16,0,.15,0,.16,0,.15,0,.16,0,.1,0a.5.5,0,0,1,.62.35.49.49,0,0,1-.34.62l-.1,0-.16,0-.17,0-.16,0-.16,0-.16,0-.09,0Zm5.79-2.18a.5.5,0,0,1-.68-.22.51.51,0,0,1,.21-.68h0l.14-.08.14-.07.14-.08.14-.07.14-.08.14-.08h0a.51.51,0,0,1,.7.18.51.51,0,0,1-.19.69h0l-.14.08-.15.08-.14.08-.15.08-.15.08-.14.08Zm5.13-3.48a.5.5,0,0,1-.72,0,.51.51,0,0,1,.05-.71l.1-.09.12-.1.12-.11.12-.11.12-.1.12-.11,0,0a.51.51,0,1,1,.69.74l0,0-.13.11-.12.12-.12.11-.13.11-.12.11-.1.08Zm4.2-4.53a.5.5,0,0,1-.71.11.51.51,0,0,1-.1-.71v0l.1-.13.1-.14.09-.13.1-.14.09-.13.09-.12a.5.5,0,0,1,.83.57l-.08.13-.1.14-.1.14-.1.14-.1.14-.11.13v0Zm3.15-5.32a.51.51,0,1,1-.93-.42l.06-.11L61,84.2,61.1,84l.07-.16.07-.16.06-.16h0a.51.51,0,0,1,.67-.27.5.5,0,0,1,.27.66h0l-.07.16-.07.17-.08.16-.07.16-.07.17-.05.11Zm2-5.78a.52.52,0,0,1-.64.33.51.51,0,0,1-.33-.64l.05-.16.06-.18.05-.17.06-.18.06-.17,0-.12a.52.52,0,0,1,.65-.31.51.51,0,0,1,.31.65l0,.11-.06.17,0,.17-.06.17,0,.17-.05.16Zm2.37-5.48a.51.51,0,1,1-.88-.5l.07-.13.09-.15.09-.15.09-.16.09-.15.09-.15a.51.51,0,0,1,.87.53l-.09.15-.09.15-.09.14-.09.15-.09.15-.06.12Zm3.49-4.83a.51.51,0,0,1-.71,0,.52.52,0,0,1,0-.72l.08-.08.12-.13.12-.13.12-.13.12-.12.12-.13,0,0a.51.51,0,1,1,.72.71l0,0-.11.12-.12.12-.11.12-.12.13-.11.12-.08.08Zm4.46-4a.51.51,0,1,1-.58-.83l.13-.09.15-.1.14-.1.14-.1.14-.1.15-.09a.51.51,0,0,1,.55.85l-.13.09-.14.09-.14.1-.14.09-.13.1-.14.09Zm5.2-2.92A.51.51,0,0,1,79,61h0l.16-.07.16-.07.16-.07.16-.06.16-.06.12,0a.51.51,0,1,1,.36.95l-.11,0-.16.06-.15.06-.16.07-.15.06-.15.07Zm5.7-1.75a.51.51,0,0,1-.19-1l.11,0,.17,0,.17,0,.18,0,.17,0,.17,0h0a.51.51,0,0,1,.58.43.52.52,0,0,1-.43.58h0l-.16,0-.17,0-.17,0-.17,0-.16,0-.11,0Zm6-.51a.52.52,0,0,1-.5-.52.5.5,0,0,1,.52-.49h1a.51.51,0,0,1,.48.54.5.5,0,0,1-.54.47H91Z"/></svg>