<svg id="Layer_3" data-name="Layer 3" xmlns="http://www.w3.org/2000/svg" viewBox="0 0 439.35 385.87"><defs><style>.cls-1{fill:#2a2a2a;stroke:#fff;stroke-miterlimit:10;stroke-width:3px;}</style></defs><path class="cls-1" d="M192.74,144.16c48.94,31.81,94.73,94.29,121.67,94.29s67.34-36.82,108.65-8.09c0,0-24.24,1.35-44,27.84-16.72,22.42-62,59.26-112.24,72.73s-122.12,6.29-122.12,6.29,69.14-9,85.3-16.16c0,0-65.55,9.87-114.93,6.28,0,0,109.55-9.88,143.22-28.73s21.41-26.92-8.7-31.88c-24.53-4-61.35-12.6-87.83-25.59C120,220.65,88.13,151.35,37,146c0,0,58.36,2.69,100.57,38.61,0,0-28.29-44.72-121.22-57.24,0,0,44.44-20.88,144.79,27.61,0,0-40.41-34.35-109.78-37.71C51.31,117.23,120.9,97.47,192.74,144.16Z"/><path class="cls-1" d="M305.43,46.74l-7.84,15.73c-5.87,11-10,27.21-9.22,42.63.9,17.06,5.23,37.72,5.23,37.72-1.37,2.33-15.56-41.76-7.88-78.42h0c-17.47,22.29-11.21,76.41-10.34,79.32,0,0-10.33-13-7.11-56.81-9.63,16.56-14.84,34.89-17.61,51.11-6.22,36.5,15.88,72.34,51.65,81.9,23,6.16,37.27-2.12,37.27-2.12s-11.29-51.62-26-79C297.8,109.59,300.47,64.69,305.43,46.74Z"/></svg>