<?xml version="1.0" encoding="utf-8"?>
<!-- Generator: Adobe Illustrator 25.1.0, SVG Export Plug-In . SVG Version: 6.00 Build 0)  -->
<svg version="1.1" id="Layer_1" xmlns="http://www.w3.org/2000/svg" xmlns:xlink="http://www.w3.org/1999/xlink" x="0px" y="0px"
	 viewBox="0 0 126.4 129.5" style="enable-background:new 0 0 126.4 129.5;" xml:space="preserve">
<style type="text/css">
	.st0{fill:#1C75BC;}
	.st1{fill:#545662;}
</style>
<g>
	<g>
		<path class="st0" d="M119.9,117.1H119c1.6-1.1,2.6-3,2.6-5.1V92.5c0-3.5-2.8-6.3-6.2-6.3H81.8c-3.4,0-6.2,2.8-6.2,6.3V112
			c0,2.1,1,4,2.6,5.1h-0.9c-2.8,0-5,2.3-5,5.1c0,2.8,2.3,5.1,5,5.1h42.6c2.8,0,5-2.3,5-5.1C125,119.4,122.7,117.1,119.9,117.1z
			 M80.4,92.5c0-0.8,0.7-1.5,1.5-1.5h33.5c0.8,0,1.5,0.7,1.5,1.5V112c0,0.8-0.7,1.5-1.5,1.5H81.8c-0.8,0-1.5-0.7-1.5-1.5V92.5H80.4z
			 M119.9,122.5H77.3c-0.2,0-0.3-0.1-0.3-0.3s0.1-0.3,0.3-0.3h42.6c0.2,0,0.3,0.1,0.3,0.3S120.1,122.5,119.9,122.5z"/>
		<path class="st0" d="M47.6,33.3h-0.9c1.6-1.1,2.6-3,2.6-5.1V8.7c0-3.5-2.8-6.3-6.2-6.3H9.5c-3.4,0-6.2,2.8-6.2,6.3v19.5
			c0,2.1,1,4,2.6,5.1H5c-2.8,0-5,2.3-5,5.1c0,2.8,2.3,5.1,5,5.1h42.6c2.8,0,5-2.3,5-5.1C52.6,35.5,50.4,33.3,47.6,33.3z M8.1,8.6
			c0-0.8,0.7-1.5,1.5-1.5h33.6c0.8,0,1.5,0.7,1.5,1.5v19.5c0,0.8-0.7,1.5-1.5,1.5H9.6c-0.8,0-1.5-0.7-1.5-1.5
			C8.1,28.1,8.1,8.6,8.1,8.6z M47.6,38.7H5c-0.2,0-0.3-0.1-0.3-0.3s0.1-0.3,0.3-0.3h42.6c0.2,0,0.3,0.1,0.3,0.3S47.8,38.7,47.6,38.7
			z"/>
		<path class="st1" d="M62.4,15.5c-4.5,0-8.9,0.7-13.1,1.8v10.8c0,2.1-1,4-2.6,5.1h0.8c3.3-6.9,7.7-11.5,12.5-12.7v15.1
			c-2.7,0-5.4,0.1-8,0.3c0.4,0.7,0.6,1.5,0.6,2.4S52.4,40,52,40.7c2.7-0.2,5.3-0.3,8-0.3v22H41c0.2-6.8,1.1-13.2,2.7-19h-5
			c-1.4,5.8-2.3,12.2-2.5,19H18.4c0.3-6.3,2-12.2,4.6-17.5v0.2c2.5-0.6,5-1.1,7.4-1.6H18.3c-3.1,6.5-4.8,13.7-4.8,21.4
			c0,27.2,21.8,49.4,48.7,49.4c4.6,0,9.1-0.7,13.3-1.9c0-0.1,0-0.2,0-0.4V99.5c-3.1,5.2-6.8,8.6-10.9,9.6V94
			c3.6-0.1,7.3-0.2,10.9-0.5v-1.1c0-1.5,0.5-2.8,1.3-3.9c-4.1,0.4-8.1,0.6-12.2,0.6v-22h19c-0.2,6.8-1.2,13.3-2.7,19
			c0.3,0,0.5-0.1,0.8-0.1h4.2c1.4-5.8,2.3-12.2,2.5-19h17.8c-0.3,6.3-2,12.2-4.6,17.5v-0.2c-2.5,0.6-5,1.1-7.4,1.6h12.1
			c3.1-6.5,4.8-13.7,4.8-21.4C111.1,37.6,89.2,15.5,62.4,15.5z M23.1,84.8c-2.6-5.3-4.3-11.3-4.6-17.5h17.8
			c0.2,7.4,1.2,14.3,2.8,20.4c-5.4-0.8-10.7-1.8-16-3V84.8z M26.3,90.2c4.8,1,9.6,1.8,14.4,2.5c2.1,5.9,4.9,10.9,8.1,14.5
			C39.6,104.2,31.7,98.1,26.3,90.2z M60,109.1c-5.5-1.3-10.5-7.3-13.9-15.8c4.6,0.4,9.3,0.7,13.9,0.8V109.1z M60,89.2
			c-5.2-0.1-10.5-0.4-15.7-1c-1.9-6.2-3.1-13.4-3.3-21h19V89.2z M64.8,20.6c5.5,1.3,10.5,7.3,13.9,15.8c-4.6-0.4-9.3-0.7-13.9-0.8
			V20.6z M64.8,62.4v-22c5.2,0.1,10.5,0.4,15.7,1c1.9,6.2,3.1,13.4,3.3,21H64.8z M76,22.5c9.2,3,17.1,9.1,22.5,17
			c-4.8-1-9.6-1.8-14.4-2.5C82,31.1,79.2,26.1,76,22.5z M88.5,62.4C88.3,55,87.3,48.1,85.7,42c5.4,0.8,10.7,1.8,16,3v-0.2
			c2.6,5.3,4.3,11.3,4.6,17.5H88.5V62.4z"/>
	</g>
</g>
</svg>
